<svg width="165" height="58" viewBox="0 0 165 58" fill="none" xmlns="http://www.w3.org/2000/svg">
<g clip-path="url(#clip0_364_995)">
<mask id="mask0_364_995" style="mask-type:luminance" maskUnits="userSpaceOnUse" x="0" y="0" width="165" height="58">
<path d="M165 0H0V58H165V0Z" fill="white"/>
</mask>
<g mask="url(#mask0_364_995)">
<path d="M5.05652 35.6923V38.0853C5.05652 42.8192 5.87321 44.2851 8.48546 44.2851C10.0609 44.2851 11.0977 43.5261 11.5321 42.0022C11.6943 41.4054 11.7522 40.9129 11.7522 39.0066H16.8087C16.7566 42.7091 16.5886 43.9027 15.7777 45.2643C14.4745 47.6573 11.9144 48.9089 8.49125 48.9089C5.39247 48.9089 3.05245 47.9297 1.6913 46.0813C0.492336 44.3952 0.00579834 42.3788 0.00579834 38.7343V30.6803C0.00579834 26.381 0.498128 24.5848 2.18363 22.9566C3.65483 21.5428 5.77475 20.778 8.32907 20.778C11.1035 20.778 13.2813 21.6471 14.6946 23.2811C16.2179 25.0252 16.7624 26.9836 16.7624 31.225V35.6865H5.05652V35.6923ZM11.6943 29.759C11.6943 26.549 10.7154 25.2453 8.37541 25.2453C6.03539 25.2453 5.05652 26.549 5.05652 29.759V31.2308H11.6943V29.759Z" fill="currentColor"/>
<path d="M26.3773 24.8166C28.7173 22.0991 30.7272 20.9518 33.1193 20.9518C35.5115 20.9518 36.8726 22.2613 37.3592 24.8166C39.7513 22.0991 41.8191 20.9518 44.2112 20.9518C47.2579 20.9518 48.6712 22.9682 48.6712 27.2617V48.37H43.6147V28.5654C43.6147 26.1724 43.1223 25.4076 41.6569 25.4076C40.2958 25.4076 38.7724 26.3868 37.5213 28.1309V48.37H32.4648V28.5654C32.4648 26.1724 31.9725 25.4076 30.5071 25.4076C29.1459 25.4076 27.6226 26.3868 26.3715 28.1309V48.37H21.315V21.3285H26.3715V24.8108L26.3773 24.8166Z" fill="currentColor"/>
<path d="M58.5178 21.3343V23.9996C60.7477 21.8789 62.5433 20.9518 64.501 20.9518C66.4587 20.9518 67.9821 21.9311 68.8509 23.7273C69.6676 25.5756 69.9398 27.4819 69.9398 31.619V38.0911C69.9398 42.2282 69.6676 44.1287 68.8509 45.9828C67.9821 47.779 66.4587 48.7582 64.501 48.7582C62.5433 48.7582 60.7477 47.8312 58.5178 45.7105V57.6234H53.4612V21.3343H58.5178ZM58.5178 42.9351C59.8789 43.9143 60.9099 44.2967 62.0509 44.2967C63.0819 44.2967 64.0087 43.752 64.391 42.8829C64.8254 41.9558 64.8775 41.2489 64.8775 38.4214V31.2945C64.8775 28.4669 64.8254 27.76 64.391 26.833C64.0087 25.9638 63.0877 25.4192 62.0509 25.4192C60.9099 25.4192 59.821 25.8537 58.5178 26.7808V42.9409V42.9351Z" fill="currentColor"/>
<path d="M79.5605 21.3343H74.504V48.3758H79.5605V21.3343Z" fill="currentColor"/>
<path d="M89.355 21.3343V26.016C90.7161 22.4236 92.6739 20.9576 95.8248 20.9576V26.833C94.8459 26.4506 94.1914 26.3405 93.3805 26.3405C92.0194 26.3405 90.9304 26.833 90.2238 27.7542C89.5172 28.6813 89.355 29.5504 89.355 32.1057V48.3758H84.2985V21.3343H89.355Z" fill="currentColor"/>
<path d="M104.194 21.3343H99.1379V48.3758H104.194V21.3343Z" fill="currentColor"/>
<path d="M120.134 29.3303C119.103 26.5027 117.904 25.4134 115.947 25.4134C114.371 25.4134 113.282 26.3926 113.282 27.8064C113.282 29.2202 114.047 30.0372 117.852 32.1057C120.899 33.7918 122.26 34.6609 123.343 35.8082C124.542 37.0597 125.249 38.9081 125.249 40.9245C125.249 45.7105 121.93 48.9205 116.925 48.9205C112.303 48.9205 109.419 46.5275 107.681 41.3011L112.413 39.6671C113.502 42.9872 114.806 44.2909 116.925 44.2909C118.611 44.2909 119.81 43.1494 119.81 41.5676C119.81 39.9858 118.941 39.0645 116.004 37.4885C112.303 35.42 111.272 34.7131 110.079 33.4615C108.828 32.1578 108.121 30.3037 108.121 28.3453C108.121 23.9359 111.44 20.7838 116.004 20.7838C120.302 20.7838 123.077 22.8523 124.762 27.3139L120.14 29.3245L120.134 29.3303Z" fill="currentColor"/>
<path d="M145.365 21.3343L139.492 47.2344C137.644 56.0995 135.628 58.0058 128.017 58.0058V52.7852C128.342 52.8374 128.724 52.8374 128.834 52.8374C131.661 52.8374 133.508 51.0933 133.508 48.428C133.508 47.7732 133.398 47.1764 133.126 46.035L127.201 21.3343H132.529L136.497 39.7772L140.14 21.3343H145.359H145.365Z" fill="currentColor"/>
<path d="M159.886 29.3303C158.855 26.5027 157.656 25.4134 155.698 25.4134C154.122 25.4134 153.034 26.3926 153.034 27.8064C153.034 29.2202 153.798 30.0372 157.603 32.1057C160.65 33.7918 162.011 34.6609 163.094 35.8082C164.293 37.0597 165 38.9081 165 40.9245C165 45.7105 161.681 48.9205 156.677 48.9205C152.055 48.9205 149.17 46.5275 147.433 41.3011L152.165 39.6671C153.254 42.9872 154.557 44.2909 156.677 44.2909C158.362 44.2909 159.561 43.1494 159.561 41.5676C159.561 39.9858 158.692 39.0645 155.756 37.4885C152.055 35.42 151.024 34.7131 149.83 33.4615C148.579 32.1578 147.873 30.3037 147.873 28.3453C147.873 23.9359 151.192 20.7838 155.762 20.7838C160.059 20.7838 162.834 22.8523 164.519 27.3139L159.897 29.3245L159.886 29.3303Z" fill="currentColor"/>
<path d="M110.16 9.16064C110.114 4.71069 106.754 0.921283 102.335 0.347656C99.6707 4.11272e-06 96.9368 0.921283 93.9713 3.19261C93.2009 3.78362 92.4248 4.46154 91.6776 5.21479L85.6422 11.2524C84.9761 11.9187 84.2927 12.5213 83.615 13.0428C81.2344 14.8679 79.1724 15.6096 77.2263 15.3604C74.1333 14.9606 71.7701 12.3011 71.7353 9.18961C71.7701 6.07233 74.1333 3.41279 77.2263 3.01299C79.1666 2.75805 81.2344 3.5055 83.615 5.33067C84.2927 5.85215 84.9761 6.44896 85.6422 7.11529L87.0613 8.56384L88.9553 6.66914L87.542 5.22058C86.7948 4.47313 86.0187 3.78941 85.2483 3.19841C82.277 0.921283 79.5431 4.11272e-06 76.8845 0.347656C72.4709 0.921283 69.1057 4.71649 69.0594 9.18961C69.1057 13.6454 72.4652 17.4348 76.8845 18.0084C79.5489 18.356 82.2828 17.4348 85.2483 15.1634C86.0245 14.5724 86.7948 13.8887 87.542 13.1413L93.5774 7.1037C94.2435 6.43737 94.927 5.83477 95.6047 5.31329C97.9852 3.48812 100.047 2.74646 101.993 2.99561C105.086 3.39541 107.45 6.05495 107.484 9.16644C107.45 12.2837 105.086 14.9433 101.993 15.3431C100.047 15.5922 97.9852 14.8506 95.6047 13.0254C94.9212 12.5039 94.2435 11.9013 93.5774 11.235L92.1873 9.84436L90.2933 11.7391L91.6834 13.1297C92.4364 13.8829 93.2067 14.5608 93.9771 15.1519C96.543 17.1161 98.9177 18.0663 101.246 18.0663C101.611 18.0663 101.982 18.0432 102.341 17.9968C106.754 17.4232 110.12 13.6338 110.166 9.15485L110.16 9.16064Z" fill="currentColor"/>
</g>
</g>
<defs>
<clipPath id="clip0_364_995">
<rect width="165" height="58" fill="white"/>
</clipPath>
</defs>
</svg>
