<?xml version="1.0" encoding="UTF-8"?>
<svg id="Layer_2" data-name="Layer 2" xmlns="http://www.w3.org/2000/svg" xmlns:xlink="http://www.w3.org/1999/xlink" viewBox="0 0 998.65 1268.93">
  <defs>
    <style>
      .cls-1 {
        mask: url(#mask);
      }

      .cls-2 {
        fill: url(#linear-gradient-4);
      }

      .cls-3 {
        fill: url(#linear-gradient-3);
      }

      .cls-4 {
        fill: url(#linear-gradient-2);
      }

      .cls-5 {
        fill: url(#linear-gradient);
      }

      .cls-6, .cls-7 {
        fill: #005b66;
      }

      .cls-7 {
        opacity: .4;
      }

      .cls-8 {
        fill: #fff;
      }
    </style>
    <linearGradient id="linear-gradient" x1="393.23" y1="261.22" x2="456.02" y2="184.98" gradientUnits="userSpaceOnUse">
      <stop offset="0" stop-color="#005b66" stop-opacity="0"/>
      <stop offset="1" stop-color="#005b66"/>
    </linearGradient>
    <mask id="mask" x="471.97" y="179.55" width="101.14" height="35.56" maskUnits="userSpaceOnUse">
      <g id="mask0_364_995" data-name="mask0 364 995">
        <path class="cls-8" d="M573.11,179.55h-101.14v35.55h101.14v-35.55Z"/>
      </g>
    </mask>
    <linearGradient id="linear-gradient-2" x1="-168.11" y1="635.24" x2="830.54" y2="635.24" gradientUnits="userSpaceOnUse">
      <stop offset="0" stop-color="#005b66" stop-opacity="0"/>
      <stop offset=".24" stop-color="#005b66" stop-opacity=".28"/>
      <stop offset=".87" stop-color="#005b66"/>
    </linearGradient>
    <linearGradient id="linear-gradient-3" x1="219.7" y1="999.9" x2="665.44" y2="999.9" xlink:href="#linear-gradient-2"/>
    <linearGradient id="linear-gradient-4" x1="212.64" y1="269.03" x2="658.39" y2="269.03" xlink:href="#linear-gradient-2"/>
  </defs>
  <g id="Layer_1-2" data-name="Layer 1">
    <path class="cls-7" d="M440.6,219.68c-2.19,1.18-3.01,3.91-1.83,6.09,6.56,12.19,5,26.89-3.97,37.44-11.92,14.01-33.01,15.71-47.02,3.79-14.01-11.92-15.71-33.01-3.79-47.02,8.79-10.33,22.81-14.3,35.71-10.12,2.37.77,4.9-.53,5.67-2.89s-.53-4.9-2.89-5.67c-16.38-5.31-34.18-.27-45.34,12.85-15.13,17.79-12.98,44.57,4.81,59.7,7.96,6.77,17.71,10.08,27.41,10.08,12,0,23.92-5.06,32.29-14.89,11.4-13.39,13.38-32.05,5.04-47.53-1.18-2.19-3.91-3.01-6.09-1.83Z"/>
    <path class="cls-5" d="M420.88,221.16c-4.82-2.73-10.48-3.69-16.15-2.61-4.17.8-8.07,2.73-11.22,5.57-6.54,5.92-9.25,14.61-7.21,23.23.78,3.3,2.29,6.4,4.41,9.04,4.85,6.03,11.72,8.97,18.54,8.97,8.11,0,16.15-4.14,20.68-12.13,1.65-2.91,2.64-6.18,2.89-9.51.48-6.23-1.39-12.11-5.1-16.73l18.85-22.15,7.17,6.1c2.23,1.9,5.65.15,5.41-2.77l-1.53-18.97c-.17-2.16-2.07-3.78-4.23-3.6l-18.98,1.52c-2.92.23-4.1,3.89-1.87,5.79l7.17,6.1-18.84,22.15ZM420.42,251.23c-6.23,7.32-18.17,6.98-23.76-1.99-.37-.59-.68-1.21-.93-1.85-2.42-6.19-.71-12.79,4.22-16.93,2.09-1.75,4.67-2.86,7.37-3.21.67-.09,1.32-.13,1.98-.13,4.64,0,9.02,2.18,11.93,6.16.82,1.11,1.46,2.36,1.89,3.67,1.69,5.11.62,10.39-2.7,14.29Z"/>
    <g>
      <path class="cls-6" d="M428.5,967.16h10.88c6.49,0,9.5,3.14,9.5,9.63s-3.01,10.11-9.5,10.11h-7.57v10.02h-3.31v-29.76ZM439.34,983.97c4.3,0,6.15-2.62,6.15-7.18s-1.85-6.71-6.15-6.71h-7.53v13.89h7.53Z"/>
      <path class="cls-6" d="M453.44,975.42h3.23v2.92c1.59-1.12,4.82-2.8,7.83-3.4v3.27c-2.92.6-6.19,2.02-7.83,2.92v15.78h-3.23v-21.5Z"/>
      <path class="cls-6" d="M466.94,985.91c0-7.4,2.41-10.92,9.2-10.92s9.2,3.53,9.2,10.92c0,7.83-1.93,11.44-9.2,11.44s-9.2-3.61-9.2-11.44ZM482.04,985.91c0-5.98-1.33-8.13-5.89-8.13s-5.89,2.15-5.89,8.13.82,8.64,5.89,8.64,5.89-2.54,5.89-8.64Z"/>
      <path class="cls-6" d="M489.69,985.78c0-7.78,2.54-10.79,8.94-10.79,1.42,0,4.17.39,5.85.65l-.13,2.67c-1.46-.17-3.87-.43-5.07-.43-4.95,0-6.28,2.15-6.28,7.91,0,6.36.99,8.69,6.32,8.69,1.2,0,3.57-.21,5.07-.39l.13,2.67c-1.72.26-4.51.6-5.98.6-6.84,0-8.86-3.14-8.86-11.57Z"/>
      <path class="cls-6" d="M508.14,986.29c0-8.17,3.53-11.31,8.99-11.31s8.69,3.01,8.69,10.06l-.21,2.45h-14.19c.04,4.6,1.42,6.97,5.68,6.97,2.32,0,5.85-.21,7.87-.39l.09,2.58c-2.11.3-5.85.69-8.38.69-6.41,0-8.51-3.74-8.51-11.05ZM522.54,984.92c0-5.33-1.63-7.22-5.42-7.22s-5.72,2.02-5.72,7.22h11.14Z"/>
      <path class="cls-6" d="M529.94,996.53l.17-2.79c2.11.3,5.5.73,7.09.73,3.53,0,5.38-.82,5.38-3.7,0-2.24-1.12-2.8-5.76-3.48-4.86-.77-7.18-1.72-7.18-6.02,0-4.73,3.83-6.28,7.74-6.28,2.37,0,5.8.47,7.78.82l-.09,2.79c-2.06-.3-5.5-.69-7.53-.69-2.67,0-4.64.69-4.64,3.27,0,1.98.99,2.54,5.55,3.31,5.38.9,7.4,1.98,7.4,6.15,0,5.03-3.18,6.71-8.34,6.71-2.02,0-5.5-.47-7.57-.82Z"/>
      <path class="cls-6" d="M549.93,996.53l.17-2.79c2.11.3,5.5.73,7.09.73,3.53,0,5.38-.82,5.38-3.7,0-2.24-1.12-2.8-5.76-3.48-4.86-.77-7.18-1.72-7.18-6.02,0-4.73,3.83-6.28,7.74-6.28,2.37,0,5.8.47,7.78.82l-.09,2.79c-2.06-.3-5.5-.69-7.53-.69-2.67,0-4.64.69-4.64,3.27,0,1.98.99,2.54,5.55,3.31,5.38.9,7.4,1.98,7.4,6.15,0,5.03-3.18,6.71-8.34,6.71-2.02,0-5.5-.47-7.57-.82Z"/>
      <path class="cls-6" d="M442.09,1044.29l.17-2.79c2.11.3,5.5.73,7.09.73,3.53,0,5.38-.82,5.38-3.7,0-2.24-1.12-2.79-5.76-3.48-4.86-.77-7.18-1.72-7.18-6.02,0-4.73,3.83-6.28,7.74-6.28,2.37,0,5.8.47,7.78.82l-.09,2.79c-2.06-.3-5.5-.69-7.53-.69-2.67,0-4.64.69-4.64,3.27,0,1.98.99,2.54,5.55,3.31,5.38.9,7.4,1.98,7.4,6.15,0,5.03-3.18,6.71-8.34,6.71-2.02,0-5.5-.47-7.57-.82Z"/>
      <path class="cls-6" d="M461.57,1038.52c0-4.13,2.15-5.98,6.58-6.36l6.75-.65v-1.85c0-3.01-1.33-4.08-3.87-4.08-2.19,0-5.93.34-8.13.56l-.13-2.45c2.02-.39,5.72-.95,8.43-.95,4.86,0,6.92,2.24,6.92,6.92v10.96c.09,1.29,1.12,1.76,2.49,1.89l-.13,2.58c-1.25,0-2.24-.13-3.14-.47-.73-.26-1.42-.64-1.98-1.25-1.68.73-4.9,1.72-7.74,1.72-3.91,0-6.06-2.24-6.06-6.58ZM474.9,1041.06v-7.09l-6.36.6c-2.62.26-3.65,1.5-3.65,3.87,0,2.49,1.07,3.96,3.27,3.96,2.32,0,5.2-.73,6.75-1.33Z"/>
      <path class="cls-6" d="M485.39,1025.97h-2.71v-2.79h2.71v-1.93c0-6.19,1.59-7.87,5.8-7.87,1.08,0,3.1.17,4.34.3l-.04,2.67c-1.03-.04-2.75-.09-3.7-.09-2.41,0-3.18,1.08-3.18,5.03v1.89h6.28v2.79h-6.28v18.71h-3.22v-18.71Z"/>
      <path class="cls-6" d="M497.39,1034.05c0-8.17,3.53-11.31,8.99-11.31s8.69,3.01,8.69,10.06l-.21,2.45h-14.19c.04,4.6,1.42,6.97,5.68,6.97,2.32,0,5.85-.21,7.87-.39l.09,2.58c-2.11.3-5.85.69-8.38.69-6.41,0-8.51-3.74-8.51-11.05ZM511.79,1032.68c0-5.33-1.63-7.22-5.42-7.22s-5.72,2.02-5.72,7.22h11.14Z"/>
      <path class="cls-6" d="M521,1037.28v-11.31h-3.01v-2.79h3.01v-6.58h3.22v6.58h6.84v2.79h-6.84v10.28c0,4.69.3,5.98,3.1,5.98.86,0,2.71-.13,3.83-.21l.22,2.67c-1.25.17-3.27.47-4.39.47-4.43,0-5.98-1.68-5.98-7.87Z"/>
      <path class="cls-6" d="M542.28,1044.67h-3.18l-6.11-21.5h3.22l5.38,18.71h1.42l5.38-18.71h3.27l-8.94,31.05h-3.22l2.79-9.55Z"/>
      <path class="cls-6" d="M378.08,1062.33h3.23v3.78h-3.23v-3.78ZM378.08,1070.93h3.23v21.5h-3.23v-21.5Z"/>
      <path class="cls-6" d="M387.5,1070.93h3.23v1.5c1.38-.82,4-1.93,6.23-1.93,2.88,0,4.47.65,5.63,2.19,1.63-.95,4.82-2.19,7.61-2.19,5.85,0,7.27,2.79,7.27,10.58v11.35h-3.22v-11.27c0-5.68-.65-7.78-4.52-7.78-2.32,0-4.82.9-6.02,1.59.39,1.55.52,3.87.52,6.28v11.18h-3.22v-11.09c0-5.89-.6-7.96-4.51-7.96-2.24,0-4.6.9-5.76,1.59v17.46h-3.23v-21.5Z"/>
      <path class="cls-6" d="M423.45,1070.93h3.23v1.55c1.38-.86,4.08-1.98,6.41-1.98,5.42,0,7.78,3.31,7.78,10.92,0,8.47-2.71,11.44-9.37,11.44-1.85,0-3.87-.3-4.82-.47v9.59h-3.23v-31.05ZM437.55,1081.42c0-5.89-1.81-8.04-4.94-8.04-2.11,0-4.64.99-5.93,1.72v14.49c.9.13,2.92.43,4.64.43,4.69,0,6.23-2.41,6.23-8.6Z"/>
      <path class="cls-6" d="M446.11,1070.93h3.23v2.92c1.59-1.12,4.82-2.79,7.83-3.4v3.27c-2.92.6-6.19,2.02-7.83,2.92v15.78h-3.23v-21.5Z"/>
      <path class="cls-6" d="M459.61,1081.42c0-7.4,2.41-10.92,9.2-10.92s9.2,3.53,9.2,10.92c0,7.83-1.93,11.44-9.2,11.44s-9.2-3.61-9.2-11.44ZM474.71,1081.42c0-5.98-1.33-8.13-5.89-8.13s-5.89,2.15-5.89,8.13.82,8.64,5.89,8.64,5.89-2.54,5.89-8.64Z"/>
      <path class="cls-6" d="M480.85,1070.93h3.48l4.99,18.71h1.59l5.2-18.71h3.31l-6.06,21.5h-6.49l-6.02-21.5Z"/>
      <path class="cls-6" d="M502.23,1081.81c0-8.17,3.53-11.31,8.99-11.31s8.69,3.01,8.69,10.06l-.21,2.45h-14.19c.04,4.6,1.42,6.97,5.68,6.97,2.32,0,5.85-.21,7.87-.39l.09,2.58c-2.11.3-5.85.69-8.38.69-6.41,0-8.51-3.74-8.51-11.05ZM516.63,1080.43c0-5.33-1.63-7.22-5.42-7.22s-5.72,2.02-5.72,7.22h11.14Z"/>
      <path class="cls-6" d="M524.89,1070.93h3.23v1.5c1.38-.82,4-1.93,6.23-1.93,2.88,0,4.47.65,5.63,2.19,1.63-.95,4.82-2.19,7.61-2.19,5.85,0,7.27,2.79,7.27,10.58v11.35h-3.22v-11.27c0-5.68-.65-7.78-4.52-7.78-2.32,0-4.82.9-6.02,1.59.39,1.55.52,3.87.52,6.28v11.18h-3.22v-11.09c0-5.89-.6-7.96-4.51-7.96-2.24,0-4.6.9-5.76,1.59v17.46h-3.23v-21.5Z"/>
      <path class="cls-6" d="M559.89,1081.81c0-8.17,3.53-11.31,8.99-11.31s8.69,3.01,8.69,10.06l-.21,2.45h-14.19c.04,4.6,1.42,6.97,5.68,6.97,2.32,0,5.85-.21,7.87-.39l.09,2.58c-2.11.3-5.85.69-8.38.69-6.41,0-8.51-3.74-8.51-11.05ZM574.29,1080.43c0-5.33-1.63-7.22-5.42-7.22s-5.72,2.02-5.72,7.22h11.14Z"/>
      <path class="cls-6" d="M582.55,1070.93h3.23v1.5c1.46-.82,4.3-1.93,6.66-1.93,5.89,0,7.22,2.92,7.22,10.58v11.35h-3.23v-11.27c0-5.68-.6-7.78-4.6-7.78-2.24,0-4.77.9-6.06,1.59v17.46h-3.23v-21.5Z"/>
      <path class="cls-6" d="M606.63,1085.04v-11.31h-3.01v-2.79h3.01v-6.58h3.22v6.58h6.84v2.79h-6.84v10.28c0,4.69.3,5.98,3.1,5.98.86,0,2.71-.13,3.83-.21l.22,2.67c-1.25.17-3.27.47-4.39.47-4.43,0-5.98-1.68-5.98-7.87Z"/>
    </g>
    <rect class="cls-6" x="185.41" y="593.06" width="18.44" height="26.26" rx="4.97" ry="4.97"/>
    <rect class="cls-6" x="214.54" y="586.19" width="18.44" height="33.13" rx="4.97" ry="4.97"/>
    <rect class="cls-6" x="243.2" y="577.06" width="18.44" height="42.26" rx="4.97" ry="4.97"/>
    <rect class="cls-6" x="243.2" y="550.9" width="18.44" height="18.67" rx="4.97" ry="4.97"/>
    <path class="cls-6" d="M230.67,577.74c-.38,0-.75-.11-1.08-.32l-22.15-14.21c-.93-.6-1.2-1.83-.6-2.76.6-.93,1.83-1.2,2.76-.6l21.11,13.54,21.85-12.92c.96-.56,2.18-.25,2.74.7s.25,2.18-.7,2.74l-22.91,13.55c-.31.19-.67.28-1.02.28Z"/>
    <path class="cls-6" d="M182.62,576.06c-.53,0-1.06-.21-1.46-.63-.76-.8-.72-2.07.09-2.83l12.14-11.4c.8-.76,2.07-.72,2.83.09.76.8.72,2.07-.09,2.83l-12.14,11.4c-.39.36-.88.54-1.37.54Z"/>
    <path class="cls-6" d="M201.06,566.13c-5.18,0-9.4-4.21-9.4-9.4s4.21-9.4,9.4-9.4,9.4,4.21,9.4,9.4-4.21,9.4-9.4,9.4ZM201.06,551.34c-2.97,0-5.4,2.42-5.4,5.4s2.42,5.4,5.4,5.4,5.4-2.42,5.4-5.4-2.42-5.4-5.4-5.4Z"/>
    <path class="cls-6" d="M761.84,582.16h16.83c11.55,0,20.92,9.38,20.92,20.92v17.63h-58.67v-17.63c0-11.55,9.38-20.92,20.92-20.92Z"/>
    <circle class="cls-6" cx="770.25" cy="557.02" r="16.76"/>
    <path class="cls-6" d="M835.63,611.05v9.66h-29.52v-17.93c0-4.04-.89-7.86-2.45-11.29,2.04-.69,4.21-1.06,6.49-1.06h4.86c11.37,0,20.62,9.23,20.62,20.62Z"/>
    <circle class="cls-6" cx="812.58" cy="570.67" r="13.17"/>
    <path class="cls-6" d="M736.86,591.49c-1.56,3.43-2.45,7.25-2.45,11.29v17.93h-29.52v-9.66c0-11.4,9.23-20.62,20.62-20.62h4.84c2.28,0,4.47.37,6.51,1.06Z"/>
    <circle class="cls-6" cx="727.92" cy="570.67" r="13.17"/>
    <g>
      <path class="cls-6" d="M164.36,641.38h3.31v29.76h-3.31v-29.76Z"/>
      <path class="cls-6" d="M174.42,649.64h3.23v1.5c1.46-.82,4.3-1.94,6.66-1.94,5.89,0,7.22,2.92,7.22,10.58v11.35h-3.23v-11.27c0-5.68-.6-7.78-4.6-7.78-2.24,0-4.77.9-6.06,1.59v17.46h-3.23v-21.5Z"/>
      <path class="cls-6" d="M196.69,670.75l.17-2.79c2.11.3,5.5.73,7.09.73,3.53,0,5.38-.82,5.38-3.7,0-2.24-1.12-2.79-5.76-3.48-4.86-.77-7.18-1.72-7.18-6.02,0-4.73,3.83-6.28,7.74-6.28,2.37,0,5.8.47,7.78.82l-.09,2.79c-2.06-.3-5.5-.69-7.53-.69-2.67,0-4.64.69-4.64,3.27,0,1.98.99,2.54,5.55,3.31,5.38.9,7.4,1.98,7.4,6.15,0,5.03-3.18,6.71-8.34,6.71-2.02,0-5.5-.47-7.57-.82Z"/>
      <path class="cls-6" d="M217.55,641.04h3.23v3.78h-3.23v-3.78ZM217.55,649.64h3.23v21.5h-3.23v-21.5Z"/>
      <path class="cls-6" d="M226.02,674.75c0-2.45,1.16-3.65,3.4-5.33-.77-.52-1.2-1.63-1.2-2.97,0-.6.82-2.28,1.46-3.4-1.81-.82-3.4-2.54-3.4-6.49,0-5.29,3.27-7.35,8.04-7.35,1.55,0,3.48.3,4.47.56l6.36-.17v2.75l-4.04-.09c.77.82,1.38,2.02,1.38,4.3,0,5.59-2.79,7.27-8.3,7.27-.43,0-1.63-.09-2.11-.17-.34.82-.77,2.06-.77,2.45,0,1.72.39,1.98,5.2,1.98,6.15,0,8.34,1.2,8.34,6.32s-3.53,6.84-9.59,6.84c-6.79,0-9.24-1.5-9.24-6.49ZM241.54,674.54c0-3.27-1.42-3.61-5.29-3.61-1.12,0-3.31-.13-4.64-.22-1.81,1.33-2.41,2.11-2.41,3.78,0,2.97,1.25,4.04,6.11,4.04,4.3,0,6.24-1.16,6.24-4ZM239.26,656.56c0-3.4-1.33-4.73-4.94-4.73-3.35,0-4.77,1.33-4.77,4.73s1.42,4.69,4.77,4.69c3.61,0,4.94-1.29,4.94-4.69Z"/>
      <path class="cls-6" d="M249.07,640.27h3.23v10.58c1.5-.73,4.3-1.63,6.62-1.63,5.93,0,7.27,2.92,7.27,10.58v11.35h-3.23v-11.27c0-5.68-.64-7.78-4.6-7.78-2.24,0-4.77.77-6.06,1.33v17.72h-3.23v-30.87Z"/>
      <path class="cls-6" d="M273.1,663.74v-11.31h-3.01v-2.79h3.01v-6.58h3.22v6.58h6.84v2.79h-6.84v10.28c0,4.69.3,5.98,3.1,5.98.86,0,2.71-.13,3.83-.21l.22,2.67c-1.25.17-3.27.47-4.39.47-4.43,0-5.98-1.68-5.98-7.87Z"/>
      <path class="cls-6" d="M188.7,717.95l.3-4.52c2.06.34,5.72.82,8.08.82,2.92,0,4.43-1.16,4.43-3.78,0-2.11-1.68-3.48-4.13-3.48h-5.72v-4.9h5.72c1.93,0,3.61-1.94,3.61-3.87s-1.33-3.05-4.26-3.05c-2.45,0-5.68.43-7.44.77l-.39-4.39c1.72-.65,5.12-1.55,8.26-1.55,7.48,0,9.93,2.54,9.93,7.83,0,3.1-1.25,4.99-3.31,6.36,2.36,1.29,3.83,2.32,3.83,6.15,0,5.98-2.75,9.07-9.67,9.07-3.1,0-7.1-.82-9.25-1.46Z"/>
      <path class="cls-6" d="M211.83,704.84c0-10.84,4.56-14.83,11.83-14.83,2.62,0,6.41.73,8.51,1.25l-.52,4.56c-1.89-.26-5.37-.64-8-.64-3.91,0-5.72,2.71-5.72,6.62,0,.04,3.35-1.07,5.42-1.07,6.41,0,9.76,2.79,9.76,9.2s-4,9.5-10.41,9.5c-7.57,0-10.88-5.55-10.88-14.58ZM227.01,709.91c0-2.67-1.5-4.04-4.17-4.04-1.68,0-3.83.56-4.95.95,0,4.13,1.2,7.44,4.82,7.44,2.75,0,4.3-1.59,4.3-4.34Z"/>
      <path class="cls-6" d="M235.44,704.88c0-10.75,3.96-14.88,11.01-14.88s11.01,4.13,11.01,14.88-3.96,14.53-11.01,14.53-11.01-3.78-11.01-14.53ZM251.35,704.88c0-7.4-1.42-9.72-4.86-9.72s-4.95,2.32-4.95,9.72c0,6.97,1.5,9.37,4.95,9.37s4.86-2.41,4.86-9.37Z"/>
    </g>
    <g>
      <path class="cls-6" d="M673.38,641.38h3.31v26.75h13.07v3.01h-16.38v-29.76Z"/>
      <path class="cls-6" d="M692.25,660.52c0-8.17,3.53-11.31,8.99-11.31s8.69,3.01,8.69,10.06l-.21,2.45h-14.19c.04,4.6,1.42,6.97,5.68,6.97,2.32,0,5.85-.21,7.87-.39l.09,2.58c-2.11.3-5.85.69-8.38.69-6.41,0-8.51-3.74-8.51-11.05ZM706.66,659.14c0-5.33-1.63-7.22-5.42-7.22s-5.72,2.02-5.72,7.22h11.14Z"/>
      <path class="cls-6" d="M713.54,664.99c0-4.13,2.15-5.98,6.58-6.36l6.75-.65v-1.85c0-3.01-1.33-4.08-3.87-4.08-2.19,0-5.93.34-8.13.56l-.13-2.45c2.02-.39,5.72-.95,8.43-.95,4.86,0,6.92,2.24,6.92,6.92v10.96c.09,1.29,1.12,1.76,2.49,1.89l-.13,2.58c-1.25,0-2.24-.13-3.14-.47-.73-.26-1.42-.65-1.98-1.25-1.68.73-4.9,1.72-7.74,1.72-3.91,0-6.06-2.24-6.06-6.58ZM726.87,667.53v-7.1l-6.36.6c-2.62.26-3.65,1.5-3.65,3.87,0,2.49,1.07,3.96,3.27,3.96,2.32,0,5.2-.73,6.75-1.33Z"/>
      <path class="cls-6" d="M735.51,660.56c0-7.57,2.45-11.35,8.99-11.35,1.68,0,4.08.34,5.29.56v-9.5h3.22v30.87h-3.22v-1.46c-1.42.82-4.21,1.89-6.54,1.89-4.21,0-7.74-1.72-7.74-11.01ZM749.79,667.1v-14.58c-1.12-.17-3.57-.47-5.12-.47-4.47,0-5.85,2.92-5.85,8.51,0,6.97,2.28,8.13,4.82,8.13,2.24,0,4.82-.95,6.15-1.59Z"/>
      <path class="cls-6" d="M758.26,660.52c0-8.17,3.53-11.31,8.99-11.31s8.69,3.01,8.69,10.06l-.21,2.45h-14.19c.04,4.6,1.42,6.97,5.68,6.97,2.32,0,5.85-.21,7.87-.39l.09,2.58c-2.11.3-5.85.69-8.38.69-6.41,0-8.51-3.74-8.51-11.05ZM772.66,659.14c0-5.33-1.63-7.22-5.42-7.22s-5.72,2.02-5.72,7.22h11.14Z"/>
      <path class="cls-6" d="M780.92,649.64h3.23v2.92c1.59-1.12,4.82-2.79,7.83-3.4v3.27c-2.92.6-6.19,2.02-7.83,2.92v15.78h-3.23v-21.5Z"/>
      <path class="cls-6" d="M794.94,670.75l.17-2.79c2.11.3,5.5.73,7.09.73,3.53,0,5.38-.82,5.38-3.7,0-2.24-1.12-2.79-5.76-3.48-4.86-.77-7.18-1.72-7.18-6.02,0-4.73,3.83-6.28,7.74-6.28,2.37,0,5.8.47,7.78.82l-.09,2.79c-2.06-.3-5.5-.69-7.53-.69-2.67,0-4.64.69-4.64,3.27,0,1.98.99,2.54,5.55,3.31,5.38.9,7.4,1.98,7.4,6.15,0,5.03-3.18,6.71-8.34,6.71-2.02,0-5.5-.47-7.57-.82Z"/>
      <path class="cls-6" d="M815.79,640.27h3.23v10.58c1.5-.73,4.3-1.63,6.62-1.63,5.93,0,7.27,2.92,7.27,10.58v11.35h-3.23v-11.27c0-5.68-.64-7.78-4.6-7.78-2.24,0-4.77.77-6.06,1.33v17.72h-3.23v-30.87Z"/>
      <path class="cls-6" d="M838.88,641.04h3.23v3.78h-3.23v-3.78ZM838.88,649.64h3.23v21.5h-3.23v-21.5Z"/>
      <path class="cls-6" d="M848.3,649.64h3.23v1.55c1.38-.86,4.08-1.98,6.41-1.98,5.42,0,7.78,3.31,7.78,10.92,0,8.47-2.71,11.44-9.37,11.44-1.85,0-3.87-.3-4.82-.47v9.59h-3.23v-31.05ZM862.4,660.13c0-5.89-1.81-8.04-4.94-8.04-2.11,0-4.64.99-5.93,1.72v14.49c.9.13,2.92.43,4.64.43,4.69,0,6.23-2.41,6.23-8.6Z"/>
      <path class="cls-6" d="M735.12,717.95l.3-4.52c2.06.34,5.72.82,8.08.82,2.92,0,4.43-1.16,4.43-3.78,0-2.11-1.68-3.48-4.13-3.48h-5.72v-4.9h5.72c1.94,0,3.61-1.94,3.61-3.87s-1.33-3.05-4.26-3.05c-2.45,0-5.68.43-7.44.77l-.39-4.39c1.72-.65,5.12-1.55,8.26-1.55,7.48,0,9.93,2.54,9.93,7.83,0,3.1-1.25,4.99-3.31,6.36,2.36,1.29,3.83,2.32,3.83,6.15,0,5.98-2.75,9.07-9.68,9.07-3.1,0-7.09-.82-9.24-1.46Z"/>
      <path class="cls-6" d="M758.26,704.84c0-10.84,4.56-14.83,11.83-14.83,2.62,0,6.41.73,8.51,1.25l-.52,4.56c-1.89-.26-5.38-.64-8-.64-3.91,0-5.72,2.71-5.72,6.62,0,.04,3.35-1.07,5.42-1.07,6.41,0,9.76,2.79,9.76,9.2s-4,9.5-10.41,9.5c-7.57,0-10.88-5.55-10.88-14.58ZM773.43,709.91c0-2.67-1.5-4.04-4.17-4.04-1.68,0-3.83.56-4.94.95,0,4.13,1.2,7.44,4.82,7.44,2.75,0,4.3-1.59,4.3-4.34Z"/>
      <path class="cls-6" d="M781.86,704.88c0-10.75,3.96-14.88,11.01-14.88s11.01,4.13,11.01,14.88-3.96,14.53-11.01,14.53-11.01-3.78-11.01-14.53ZM797.77,704.88c0-7.4-1.42-9.72-4.86-9.72s-4.95,2.32-4.95,9.72c0,6.97,1.5,9.37,4.95,9.37s4.86-2.41,4.86-9.37Z"/>
    </g>
    <g>
      <path class="cls-6" d="M470.23,281.61l.63-9.44c4.31.72,11.95,1.71,16.9,1.71,6.11,0,9.26-2.43,9.26-7.91,0-4.4-3.5-7.28-8.63-7.28h-11.95v-10.25h11.95c4.04,0,7.55-4.04,7.55-8.09s-2.79-6.38-8.9-6.38c-5.12,0-11.86.9-15.55,1.62l-.81-9.17c3.59-1.35,10.7-3.24,17.26-3.24,15.64,0,20.76,5.3,20.76,16.36,0,6.47-2.61,10.43-6.92,13.3,4.94,2.7,8,4.85,8,12.85,0,12.49-5.75,18.96-20.22,18.96-6.47,0-14.83-1.71-19.32-3.06Z"/>
      <path class="cls-6" d="M518.58,254.2c0-22.65,9.53-31.01,24.72-31.01,5.48,0,13.39,1.53,17.79,2.61l-1.08,9.53c-3.95-.54-11.23-1.35-16.72-1.35-8.18,0-11.95,5.66-11.95,13.84,0,.09,7.01-2.25,11.32-2.25,13.39,0,20.4,5.84,20.4,19.23s-8.36,19.86-21.75,19.86c-15.82,0-22.74-11.59-22.74-30.47ZM550.31,264.8c0-5.57-3.15-8.45-8.72-8.45-3.5,0-8,1.17-10.34,1.98,0,8.63,2.52,15.55,10.07,15.55,5.75,0,8.99-3.33,8.99-9.08Z"/>
      <path class="cls-6" d="M567.92,254.29c0-22.47,8.27-31.1,23.01-31.1s23.01,8.63,23.01,31.1-8.27,30.38-23.01,30.38-23.01-7.91-23.01-30.38ZM601.17,254.29c0-15.46-2.97-20.31-10.16-20.31s-10.34,4.85-10.34,20.31c0,14.56,3.15,19.59,10.34,19.59s10.16-5.03,10.16-19.59Z"/>
    </g>
    <g class="cls-1">
      <g>
        <path class="cls-6" d="M475.07,201.43v1.47c0,2.9.5,3.8,2.1,3.8.97,0,1.6-.47,1.87-1.4.1-.37.13-.67.13-1.84h3.1c-.03,2.27-.13,3-.63,3.84-.8,1.47-2.37,2.23-4.47,2.23-1.9,0-3.33-.6-4.17-1.73-.73-1.03-1.03-2.27-1.03-4.5v-4.94c0-2.64.3-3.74,1.33-4.73.9-.87,2.2-1.34,3.77-1.34,1.7,0,3.04.53,3.9,1.53.93,1.07,1.27,2.27,1.27,4.87v2.73h-7.18ZM479.13,197.79c0-1.97-.6-2.77-2.03-2.77s-2.03.8-2.03,2.77v.9h4.07v-.9Z"/>
        <path class="cls-6" d="M488.13,194.76c1.43-1.67,2.67-2.37,4.13-2.37s2.3.8,2.6,2.37c1.47-1.67,2.73-2.37,4.2-2.37,1.87,0,2.73,1.24,2.73,3.87v12.94h-3.1v-12.14c0-1.47-.3-1.94-1.2-1.94-.83,0-1.77.6-2.54,1.67v12.41h-3.1v-12.14c0-1.47-.3-1.94-1.2-1.94-.83,0-1.77.6-2.54,1.67v12.41h-3.1v-16.58h3.1v2.13h0Z"/>
        <path class="cls-6" d="M507.84,192.63v1.63c1.37-1.3,2.47-1.87,3.67-1.87s2.13.6,2.67,1.7c.5,1.13.67,2.3.67,4.84v3.97c0,2.54-.17,3.7-.67,4.84-.53,1.1-1.47,1.7-2.67,1.7s-2.3-.57-3.67-1.87v7.3h-3.1v-22.24h3.1ZM507.84,205.87c.83.6,1.47.83,2.17.83.63,0,1.2-.33,1.43-.87.27-.57.3-1,.3-2.73v-4.37c0-1.73-.03-2.17-.3-2.73-.23-.53-.8-.87-1.43-.87-.7,0-1.37.27-2.17.83v9.91h0Z"/>
        <path class="cls-6" d="M520.73,192.63h-3.1v16.58h3.1v-16.58Z"/>
        <path class="cls-6" d="M526.74,192.63v2.87c.83-2.2,2.03-3.1,3.97-3.1v3.6c-.6-.23-1-.3-1.5-.3-.83,0-1.5.3-1.93.87-.43.57-.53,1.1-.53,2.67v9.97h-3.1v-16.58h3.1Z"/>
        <path class="cls-6" d="M535.83,192.63h-3.1v16.58h3.1v-16.58Z"/>
        <path class="cls-6" d="M545.6,197.53c-.63-1.73-1.37-2.4-2.57-2.4-.97,0-1.63.6-1.63,1.47s.47,1.37,2.8,2.64c1.87,1.03,2.7,1.57,3.37,2.27.73.77,1.17,1.9,1.17,3.14,0,2.93-2.03,4.9-5.1,4.9-2.83,0-4.6-1.47-5.67-4.67l2.9-1c.67,2.04,1.47,2.83,2.77,2.83,1.03,0,1.77-.7,1.77-1.67s-.53-1.53-2.33-2.5c-2.27-1.27-2.9-1.7-3.63-2.47-.77-.8-1.2-1.94-1.2-3.14,0-2.7,2.03-4.63,4.83-4.63,2.63,0,4.34,1.27,5.37,4l-2.83,1.23h0Z"/>
        <path class="cls-6" d="M561.07,192.63l-3.6,15.88c-1.13,5.43-2.37,6.6-7.03,6.6v-3.2c.2.03.43.03.5.03,1.73,0,2.87-1.07,2.87-2.7,0-.4-.07-.77-.23-1.47l-3.63-15.14h3.27l2.43,11.3,2.23-11.3h3.2Z"/>
        <path class="cls-6" d="M569.97,197.53c-.63-1.73-1.37-2.4-2.57-2.4-.97,0-1.63.6-1.63,1.47s.47,1.37,2.8,2.64c1.87,1.03,2.7,1.57,3.37,2.27.73.77,1.17,1.9,1.17,3.14,0,2.93-2.03,4.9-5.1,4.9-2.83,0-4.6-1.47-5.67-4.67l2.9-1c.67,2.04,1.47,2.83,2.77,2.83,1.03,0,1.77-.7,1.77-1.67s-.53-1.53-2.33-2.5c-2.27-1.27-2.9-1.7-3.63-2.47-.77-.8-1.2-1.94-1.2-3.14,0-2.7,2.03-4.63,4.84-4.63,2.63,0,4.33,1.27,5.37,4l-2.83,1.23h0Z"/>
        <path class="cls-6" d="M539.49,185.16c-.03-2.73-2.09-5.05-4.8-5.4-1.63-.21-3.31.35-5.13,1.74-.47.36-.95.78-1.41,1.24l-3.7,3.7c-.41.41-.83.78-1.24,1.1-1.46,1.12-2.72,1.57-3.92,1.42-1.9-.25-3.34-1.88-3.37-3.78.02-1.91,1.47-3.54,3.37-3.79,1.19-.16,2.46.3,3.92,1.42.42.32.83.69,1.24,1.09l.87.89,1.16-1.16-.87-.89c-.46-.46-.93-.88-1.41-1.24-1.82-1.4-3.5-1.96-5.13-1.75-2.71.35-4.77,2.68-4.8,5.42.03,2.73,2.09,5.05,4.8,5.41,1.63.21,3.31-.35,5.13-1.74.48-.36.95-.78,1.41-1.24l3.7-3.7c.41-.41.83-.78,1.24-1.1,1.46-1.12,2.72-1.57,3.92-1.42,1.9.25,3.34,1.88,3.37,3.78-.02,1.91-1.47,3.54-3.37,3.79-1.19.15-2.46-.3-3.92-1.42-.42-.32-.83-.69-1.24-1.1l-.85-.85-1.16,1.16.85.85c.46.46.93.88,1.41,1.24,1.57,1.2,3.03,1.79,4.46,1.79.22,0,.45-.01.67-.04,2.71-.35,4.77-2.67,4.8-5.42h0Z"/>
      </g>
    </g>
    <path class="cls-4" d="M933.38,477.64c-42.09-42.09-98.06-65.28-157.59-65.28s-115.5,23.18-157.59,65.28l-107.21,107.21,38.89,38.89,107.21-107.21c31.71-31.71,73.86-49.17,118.7-49.17s87,17.46,118.7,49.17c31.71,31.71,49.17,73.86,49.17,118.7s-17.46,87-49.17,118.7c-65.45,65.45-171.95,65.45-237.41,0l-276.61-276.3c-42.09-42.09-98.06-65.28-157.59-65.28s-115.5,23.18-157.59,65.28C23.18,519.74,0,575.71,0,635.24s23.18,115.5,65.28,157.59c42.09,42.09,98.06,65.28,157.59,65.28s115.5-23.18,157.59-65.28l106.57-106.57-38.89-38.89-106.57,106.57c-65.45,65.45-171.95,65.45-237.41,0-31.71-31.71-49.17-73.86-49.17-118.7s17.46-87,49.17-118.7c31.71-31.71,73.86-49.17,118.7-49.17s87,17.46,118.7,49.17l276.61,276.3c42.09,42.09,98.06,65.28,157.59,65.28s115.5-23.18,157.59-65.28c42.1-42.1,65.28-98.06,65.28-157.59s-23.18-115.5-65.28-157.59Z"/>
    <path class="cls-3" d="M498.24,1268.93c-59.53,0-115.5-23.18-157.59-65.28-42.09-42.09-65.28-98.06-65.28-157.59s23.18-115.5,65.28-157.59l157.59-157.59,157.59,157.59c42.09,42.09,65.28,98.06,65.28,157.59s-23.19,115.5-65.28,157.59h0s0,0,0,0c-42.09,42.1-98.06,65.28-157.59,65.28ZM498.24,808.65l-118.7,118.7c-31.71,31.71-49.17,73.86-49.17,118.7s17.46,87,49.17,118.7c31.71,31.71,73.86,49.17,118.7,49.17s87-17.46,118.7-49.17h0c31.71-31.71,49.17-73.86,49.17-118.7s-17.46-87-49.17-118.7l-118.7-118.7Z"/>
    <path class="cls-2" d="M498.24,538.06l-157.59-157.59c-42.09-42.09-65.28-98.06-65.28-157.59s23.19-115.5,65.28-157.59h0s0,0,0,0C382.74,23.18,438.71,0,498.24,0s115.5,23.18,157.59,65.28c42.09,42.09,65.28,98.06,65.28,157.59s-23.18,115.5-65.28,157.59l-157.59,157.59ZM498.24,55c-44.84,0-87,17.46-118.7,49.17h0c-31.71,31.71-49.17,73.86-49.17,118.7s17.46,87,49.17,118.7l118.7,118.7,118.7-118.7c31.71-31.71,49.17-73.86,49.17-118.7s-17.46-87-49.17-118.7c-31.71-31.71-73.86-49.17-118.7-49.17Z"/>
  </g>
</svg>